<svg width="196" height="24" viewBox="0 0 196 24" fill="none" xmlns="http://www.w3.org/2000/svg">
<path fill-rule="evenodd" clip-rule="evenodd" d="M92.9722 21.384C94.4122 21.384 95.6722 21.146 96.7522 20.67C97.8322 20.194 98.6742 19.504 99.2782 18.6C99.8822 17.696 100.184 16.612 100.184 15.348C100.184 14.484 100.042 13.74 99.7582 13.116C99.4742 12.492 99.0642 11.946 98.5282 11.478C97.9922 11.01 97.3482 10.584 96.5962 10.2C95.8442 9.81597 95.0042 9.42797 94.0762 9.03597C93.6442 8.85997 93.2482 8.69397 92.8882 8.53797C92.5282 8.38197 92.2202 8.21797 91.9642 8.04597C91.7082 7.87397 91.5102 7.66997 91.3702 7.43397C91.2302 7.19797 91.1602 6.91197 91.1602 6.57597C91.1602 6.16797 91.2662 5.79797 91.4782 5.46597C91.6902 5.13397 91.9942 4.86797 92.3902 4.66797C92.7862 4.46797 93.2682 4.36797 93.8362 4.36797C94.3402 4.36797 94.8382 4.43997 95.3302 4.58397C95.8222 4.72797 96.2862 4.91797 96.7222 5.15397C97.1582 5.38997 97.5482 5.65597 97.8922 5.95197L99.5122 2.90397C99.0802 2.53597 98.5522 2.19597 97.9282 1.88397C97.3042 1.57197 96.6322 1.31997 95.9122 1.12797C95.1922 0.935966 94.4722 0.839966 93.7522 0.839966C92.7922 0.839966 91.9222 0.999966 91.1422 1.31997C90.3622 1.63997 89.6902 2.07197 89.1262 2.61597C88.5622 3.15997 88.1282 3.77997 87.8242 4.47597C87.5202 5.17197 87.3682 5.89997 87.3682 6.65997C87.3682 7.29997 87.4782 7.87797 87.6982 8.39397C87.9182 8.90997 88.2162 9.37197 88.5922 9.77997C88.9682 10.188 89.3982 10.546 89.8822 10.854C90.3662 11.162 90.8762 11.436 91.4122 11.676C92.1322 11.988 92.7742 12.274 93.3382 12.534C93.9022 12.794 94.3782 13.058 94.7662 13.326C95.1542 13.594 95.4482 13.894 95.6482 14.226C95.8482 14.558 95.9482 14.96 95.9482 15.432C95.9482 15.952 95.8242 16.386 95.5762 16.734C95.3282 17.082 94.9902 17.344 94.5622 17.52C94.1342 17.696 93.6402 17.784 93.0802 17.784C92.4802 17.784 91.9142 17.698 91.3822 17.526C90.8502 17.354 90.3562 17.138 89.9002 16.878C89.4442 16.618 89.0322 16.344 88.6642 16.056C88.2962 15.768 87.9802 15.508 87.7162 15.276L85.7242 18.492C85.9802 18.74 86.3282 19.028 86.7682 19.356C87.2082 19.684 87.7342 20.002 88.3462 20.31C88.9582 20.618 89.6522 20.874 90.4282 21.078C91.2042 21.282 92.0522 21.384 92.9722 21.384ZM48.1362 21C49.5442 21 50.8542 20.75 52.0662 20.25C53.2782 19.75 54.3382 19.05 55.2462 18.15C56.1542 17.25 56.8602 16.202 57.3642 15.006C57.8682 13.81 58.1202 12.512 58.1202 11.112C58.1202 9.71997 57.8662 8.42397 57.3582 7.22397C56.8502 6.02397 56.1422 4.97197 55.2342 4.06797C54.3262 3.16397 53.2682 2.45997 52.0602 1.95597C50.8522 1.45197 49.5442 1.19997 48.1362 1.19997H42.7002V21H48.1362ZM47.7042 17.52H46.5882V4.67997H47.7042C48.6002 4.67997 49.4282 4.83997 50.1882 5.15997C50.9482 5.47997 51.6082 5.92997 52.1682 6.50997C52.7282 7.08997 53.1642 7.76997 53.4762 8.54997C53.7882 9.32997 53.9442 10.18 53.9442 11.1C53.9442 12.028 53.7882 12.882 53.4762 13.662C53.1642 14.442 52.7282 15.12 52.1682 15.696C51.6082 16.272 50.9482 16.72 50.1882 17.04C49.4282 17.36 48.6002 17.52 47.7042 17.52ZM78.0602 17.592V21H67.0442V1.19997H78.0602V4.60797H70.9322V9.37197H77.7722V12.78H70.9322V17.592H78.0602ZM109.168 1.19997H113.056V21H109.168V1.19997ZM131.748 21.384C132.916 21.384 134.044 21.186 135.132 20.79C136.22 20.394 137.196 19.834 138.06 19.11C138.924 18.386 139.606 17.526 140.106 16.53C140.606 15.534 140.856 14.432 140.856 13.224V10.224H131.7V13.236H136.896V13.536C136.896 14.152 136.76 14.72 136.488 15.24C136.216 15.76 135.848 16.212 135.384 16.596C134.92 16.98 134.39 17.278 133.794 17.49C133.198 17.702 132.58 17.808 131.94 17.808C131.14 17.808 130.394 17.644 129.702 17.316C129.01 16.988 128.406 16.52 127.89 15.912C127.374 15.304 126.972 14.58 126.684 13.74C126.396 12.9 126.252 11.964 126.252 10.932C126.252 9.98797 126.38 9.11397 126.636 8.30997C126.892 7.50597 127.268 6.80397 127.764 6.20397C128.26 5.60397 128.87 5.13797 129.594 4.80597C130.318 4.47397 131.152 4.30797 132.096 4.30797C133.056 4.30797 134.03 4.48597 135.018 4.84197C136.006 5.19797 136.848 5.69997 137.544 6.34797L139.368 3.33597C138.72 2.79997 137.992 2.34597 137.184 1.97397C136.376 1.60197 135.534 1.31997 134.658 1.12797C133.782 0.935966 132.912 0.839966 132.048 0.839966C130.52 0.839966 129.14 1.10997 127.908 1.64997C126.676 2.18997 125.624 2.93397 124.752 3.88197C123.88 4.82997 123.212 5.92197 122.748 7.15797C122.284 8.39397 122.052 9.70797 122.052 11.1C122.052 12.556 122.3 13.908 122.796 15.156C123.292 16.404 123.98 17.494 124.86 18.426C125.74 19.358 126.768 20.084 127.944 20.604C129.12 21.124 130.388 21.384 131.748 21.384ZM153.668 7.67997V21H149.78V1.19997H153.668L162.2 14.52V1.19997H166.088V21H162.2L153.668 7.67997ZM185.032 21.384C186.416 21.384 187.712 21.12 188.92 20.592C190.128 20.064 191.188 19.33 192.1 18.39C193.012 17.45 193.726 16.358 194.242 15.114C194.758 13.87 195.016 12.536 195.016 11.112C195.016 9.68797 194.758 8.35397 194.242 7.10997C193.726 5.86597 193.012 4.77397 192.1 3.83397C191.188 2.89397 190.128 2.15997 188.92 1.63197C187.712 1.10397 186.416 0.839966 185.032 0.839966C183.648 0.839966 182.352 1.10397 181.144 1.63197C179.936 2.15997 178.876 2.89397 177.964 3.83397C177.052 4.77397 176.338 5.86597 175.822 7.10997C175.306 8.35397 175.048 9.68797 175.048 11.112C175.048 12.536 175.306 13.87 175.822 15.114C176.338 16.358 177.052 17.45 177.964 18.39C178.876 19.33 179.936 20.064 181.144 20.592C182.352 21.12 183.648 21.384 185.032 21.384ZM182.71 17.16C183.418 17.48 184.188 17.64 185.02 17.64C185.868 17.64 186.644 17.48 187.348 17.16C188.052 16.84 188.664 16.388 189.184 15.804C189.704 15.22 190.108 14.53 190.396 13.734C190.684 12.938 190.828 12.064 190.828 11.112C190.828 10.16 190.684 9.28597 190.396 8.48997C190.108 7.69397 189.704 7.00397 189.184 6.41997C188.664 5.83597 188.052 5.38397 187.348 5.06397C186.644 4.74397 185.868 4.58397 185.02 4.58397C184.188 4.58397 183.418 4.74397 182.71 5.06397C182.002 5.38397 181.388 5.83597 180.868 6.41997C180.348 7.00397 179.946 7.69397 179.662 8.48997C179.378 9.28597 179.236 10.16 179.236 11.112C179.236 12.064 179.378 12.938 179.662 13.734C179.946 14.53 180.348 15.22 180.868 15.804C181.388 16.388 182.002 16.84 182.71 17.16Z" fill="#333136"/>
<circle cx="12" cy="12" r="12" transform="matrix(0 -1 -1 0 24 24)" fill="url(#paint0_angular_0_10581)"/>
<defs>
<radialGradient id="paint0_angular_0_10581" cx="0" cy="0" r="1" gradientUnits="userSpaceOnUse" gradientTransform="translate(12 12) scale(12)">
<stop stop-color="#E7816B" stop-opacity="0.01"/>
<stop offset="0.999287" stop-color="#E7816B"/>
</radialGradient>
</defs>
</svg>
